<svg xmlns="http://www.w3.org/2000/svg" viewBox="0 0 360 414"><defs><style>.cls-1{fill:none;}.cls-2{fill:#fff;}</style></defs><title>note-bg</title><g id="레이어_2" data-name="레이어 2"><g id="레이어_1-2" data-name="레이어 1"><circle class="cls-1" cx="180" cy="36" r="9"/><circle class="cls-1" cx="90" cy="36" r="9"/><path class="cls-1" d="M45,36c-2.67,0-5.06-2.32-6.71-6a9,9,0,1,0,13.42,0C50.06,33.68,47.67,36,45,36Z"/><path class="cls-1" d="M47,8.66a8.25,8.25,0,0,0-2-3.14,8.25,8.25,0,0,0-2,3.14A25.64,25.64,0,0,0,41.4,18h7.2A25.64,25.64,0,0,0,47,8.66Z"/><circle class="cls-1" cx="135" cy="36" r="9"/><path class="cls-1" d="M45,30.48a8.25,8.25,0,0,0,2-3.14.36.36,0,0,1,0-.11,9,9,0,0,0-4,0,.36.36,0,0,1,0,.11A8.25,8.25,0,0,0,45,30.48Z"/><circle class="cls-1" cx="225" cy="36" r="9"/><circle class="cls-1" cx="270" cy="36" r="9"/><circle class="cls-1" cx="315" cy="36" r="9"/><path class="cls-2" d="M350,18H10A10,10,0,0,0,0,28V404a10,10,0,0,0,10,10H350a10,10,0,0,0,10-10V28A10,10,0,0,0,350,18Zm-35,9a9,9,0,1,1-9,9A9,9,0,0,1,315,27Zm-45,0a9,9,0,1,1-9,9A9,9,0,0,1,270,27Zm-45,0a9,9,0,1,1-9,9A9,9,0,0,1,225,27Zm-45,0a9,9,0,1,1-9,9A9,9,0,0,1,180,27Zm-45,0a9,9,0,1,1-9,9A9,9,0,0,1,135,27ZM90,27a9,9,0,1,1-9,9A9,9,0,0,1,90,27ZM45,27a9,9,0,1,1-9,9A9,9,0,0,1,45,27Z"/><path d="M47,27.23a.36.36,0,0,0,0,.11,8.25,8.25,0,0,1-2,3.14,8.25,8.25,0,0,1-2-3.14.36.36,0,0,0,0-.11A25.55,25.55,0,0,1,41.4,18,25.64,25.64,0,0,1,43,8.66a8.25,8.25,0,0,1,2-3.14,8.25,8.25,0,0,1,2,3.14A25.64,25.64,0,0,1,48.6,18H54c0-9.94-4-18-9-18s-9,8.06-9,18a30.09,30.09,0,0,0,2.29,12c1.65,3.68,4,6,6.71,6s5.06-2.32,6.71-6A9,9,0,0,0,47,27.23Z"/><path d="M92,27.23a.36.36,0,0,0,0,.11,8.25,8.25,0,0,1-2,3.14,8.25,8.25,0,0,1-2-3.14.36.36,0,0,0,0-.11A25.55,25.55,0,0,1,86.4,18,25.64,25.64,0,0,1,88,8.66a8.25,8.25,0,0,1,2-3.14,8.25,8.25,0,0,1,2,3.14A25.64,25.64,0,0,1,93.6,18H99c0-9.94-4-18-9-18s-9,8.06-9,18a30.09,30.09,0,0,0,2.29,12c1.65,3.68,4,6,6.71,6s5.06-2.32,6.71-6A9,9,0,0,0,92,27.23Z"/><path d="M137,27.23a.36.36,0,0,0,0,.11,8.25,8.25,0,0,1-2,3.14,8.25,8.25,0,0,1-2-3.14.36.36,0,0,0,0-.11A25.55,25.55,0,0,1,131.4,18,25.64,25.64,0,0,1,133,8.66a8.25,8.25,0,0,1,2-3.14,8.25,8.25,0,0,1,2,3.14A25.64,25.64,0,0,1,138.6,18H144c0-9.94-4-18-9-18s-9,8.06-9,18a30.09,30.09,0,0,0,2.29,12c1.65,3.68,4,6,6.71,6s5.06-2.32,6.71-6A9,9,0,0,0,137,27.23Z"/><path d="M182,27.23a.36.36,0,0,0,0,.11,8.25,8.25,0,0,1-2,3.14,8.25,8.25,0,0,1-2-3.14.36.36,0,0,0,0-.11A25.55,25.55,0,0,1,176.4,18,25.64,25.64,0,0,1,178,8.66a8.25,8.25,0,0,1,2-3.14,8.25,8.25,0,0,1,2,3.14A25.64,25.64,0,0,1,183.6,18H189c0-9.94-4-18-9-18s-9,8.06-9,18a30.09,30.09,0,0,0,2.29,12c1.65,3.68,4,6,6.71,6s5.06-2.32,6.71-6A9,9,0,0,0,182,27.23Z"/><path d="M227,27.23a.36.36,0,0,0,0,.11,8.25,8.25,0,0,1-2,3.14,8.25,8.25,0,0,1-2-3.14.36.36,0,0,0,0-.11A25.55,25.55,0,0,1,221.4,18,25.64,25.64,0,0,1,223,8.66a8.25,8.25,0,0,1,2-3.14,8.25,8.25,0,0,1,2,3.14A25.64,25.64,0,0,1,228.6,18H234c0-9.94-4-18-9-18s-9,8.06-9,18a30.09,30.09,0,0,0,2.29,12c1.65,3.68,4,6,6.71,6s5.06-2.32,6.71-6A9,9,0,0,0,227,27.23Z"/><path d="M272,27.23a.36.36,0,0,0,0,.11,8.25,8.25,0,0,1-2,3.14,8.25,8.25,0,0,1-2-3.14.36.36,0,0,0,0-.11A25.55,25.55,0,0,1,266.4,18,25.64,25.64,0,0,1,268,8.66a8.25,8.25,0,0,1,2-3.14,8.25,8.25,0,0,1,2,3.14A25.64,25.64,0,0,1,273.6,18H279c0-9.94-4-18-9-18s-9,8.06-9,18a30.09,30.09,0,0,0,2.29,12c1.65,3.68,4,6,6.71,6s5.06-2.32,6.71-6A9,9,0,0,0,272,27.23Z"/><path d="M317,27.23a.36.36,0,0,0,0,.11,8.25,8.25,0,0,1-2,3.14,8.25,8.25,0,0,1-2-3.14.36.36,0,0,0,0-.11A25.55,25.55,0,0,1,311.4,18,25.64,25.64,0,0,1,313,8.66a8.25,8.25,0,0,1,2-3.14,8.25,8.25,0,0,1,2,3.14A25.64,25.64,0,0,1,318.6,18H324c0-9.94-4-18-9-18s-9,8.06-9,18a30.09,30.09,0,0,0,2.29,12c1.65,3.68,4,6,6.71,6s5.06-2.32,6.71-6A9,9,0,0,0,317,27.23Z"/></g></g></svg>